Coordinates
version=1
nRows=29
nColumns=22
inDegrees=yes

Units are S.I. units (second, meters, Newtons, ...)
If the header above contains a line with 'inDegrees', this indicates whether rotational values are in degrees (yes) or radians (no).

endheader
time	pelvis_tilt	pelvis_list	pelvis_rotation	pelvis_tx	pelvis_ty	pelvis_tz	hip_flexion_r	hip_adduction_r	hip_rotation_r	knee_angle_r	ankle_angle_r	subtalar_angle_r	hip_flexion_l	hip_adduction_l	hip_rotation_l	knee_angle_l	ankle_angle_l	subtalar_angle_l	lumbar_extension	lumbar_bending	lumbar_rotation
      1.52000000	     -4.02158127	     -1.99692765	     -0.47956719	     -0.87225849	      0.87075166	     -0.13082887	     36.00915112	     -6.43204310	      4.11858230	    -41.41004480	      4.40320832	      2.37685888	     -7.53428335	     -0.51265271	     -0.52123163	     -8.77739908	     23.00205058	     -0.33549885	     -4.37714945	      0.66112316	      3.87878566
      1.53000000	     -3.97368091	     -2.21832944	     -0.41048455	     -0.86664609	      0.86974167	     -0.13090973	     35.67032251	     -6.15747577	      4.14497416	    -38.17564907	      4.05016305	      3.25147222	     -7.80875631	     -0.72881388	     -0.43324309	     -9.11816645	     23.32898183	     -0.58273321	     -4.48701486	      0.88233786	      3.73331371
      1.54000000	     -3.95867114	     -2.38134459	     -0.34548600	     -0.86089943	      0.86848304	     -0.13092457	     35.35546994	     -5.93500620	      4.23606497	    -34.92490712	      3.75903261	      4.12126270	     -8.06064795	     -0.88812682	     -0.32308321	     -9.45865762	     23.67852539	     -0.80822469	     -4.56353000	      1.03768692	      3.61252773
      1.55000000	     -3.96052292	     -2.50087962	     -0.27442278	     -0.85499467	      0.86701017	     -0.13088974	     35.04997596	     -5.75318869	      4.38462796	    -31.69511809	      3.56080958	      4.85943070	     -8.30791842	     -1.00972859	     -0.23957376	     -9.79675194	     24.07065498	     -0.98791457	     -4.62285098	      1.15059467	      3.44707568
      1.56000000	     -3.98969688	     -2.56879196	     -0.20540789	     -0.84895687	      0.86532333	     -0.13080714	     34.78956070	     -5.61962029	      4.59700181	    -28.53975532	      3.40747419	      5.57047707	     -8.54286100	     -1.08307449	     -0.15503394	    -10.12640891	     24.46888379	     -1.13073399	     -4.65619405	      1.20965613	      3.29818658
      1.57000000	     -4.06331820	     -2.62795262	     -0.14124734	     -0.84276054	      0.86341204	     -0.13064640	     34.58963028	     -5.48850476	      4.85203717	    -25.48618482	      3.32341434	      6.06266506	     -8.73689916	     -1.15810968	     -0.11167306	    -10.47442165	     24.90313643	     -1.22704174	     -4.63961570	      1.26207495	      3.16791635
      1.58000000	     -4.12990371	     -2.64370951	     -0.07609898	     -0.83639975	      0.86137241	     -0.13045968	     34.41149545	     -5.40524540	      5.16330529	    -22.57759956	      3.27020380	      6.65820225	     -8.97842093	     -1.19169181	     -0.07817786	    -10.77157991	     25.34191759	     -1.29215190	     -4.63465923	      1.27436272	      3.00623862
      1.59000000	     -4.21359685	     -2.62731248	     -0.01081935	     -0.82987732	      0.85917989	     -0.13022031	     34.29278517	     -5.35838737	      5.49858613	    -19.85523451	      3.24529099	      7.26610325	     -9.22911357	     -1.19866257	     -0.06742456	    -11.04357699	     25.80248363	     -1.31943422	     -4.61337725	      1.25523422	      2.82497804
      1.60000000	     -4.31777244	     -2.61016071	      0.05193695	     -0.82317792	      0.85685904	     -0.12992488	     34.23391545	     -5.31935487	      5.78783369	    -17.33517924	      3.24058933	      7.78561121	     -9.47549293	     -1.21220648	     -0.06675525	    -11.31608210	     26.24922878	     -1.31775527	     -4.57024669	      1.23769939	      2.69187050
      1.61000000	     -4.41188899	     -2.58641759	      0.12134748	     -0.81626686	      0.85446519	     -0.12958577	     34.20904404	     -5.29753171	      5.98663599	    -15.05541135	      3.26580682	      8.33382401	     -9.77335333	     -1.22661266	     -0.08349878	    -11.54322829	     26.70360753	     -1.28238046	     -4.53766547	      1.21904289	      2.52780272
      1.62000000	     -4.49027815	     -2.54410088	      0.20080436	     -0.80915804	      0.85201844	     -0.12923931	     34.22714855	     -5.30381305	      6.03432143	    -13.05945544	      3.32147808	      8.92307154	    -10.12322004	     -1.22485980	     -0.09457014	    -11.73359866	     27.16093322	     -1.20562223	     -4.52486861	      1.18981785	      2.34517132
      1.63000000	     -4.57157675	     -2.53509626	      0.28701789	     -0.80179992	      0.84952151	     -0.12881917	     34.29482906	     -5.27615171	      5.83749120	    -11.35763826	      3.40876473	      9.39083757	    -10.50932850	     -1.26997408	     -0.10886829	    -11.88836477	     27.56990031	     -1.12608307	     -4.50188618	      1.19940658	      2.17450227
      1.64000000	     -4.63560896	     -2.51582618	      0.38977603	     -0.79423541	      0.84701124	     -0.12837555	     34.41160862	     -5.25536603	      5.38062949	    -10.00045689	      3.53683182	      9.82329798	    -10.94925207	     -1.31181505	     -0.09838003	    -12.00462548	     27.94938486	     -1.01648923	     -4.49994826	      1.20428986	      1.98599809
      1.65000000	     -4.68876775	     -2.47961501	      0.51205207	     -0.78649193	      0.84448704	     -0.12791088	     34.59632840	     -5.24258545	      4.66058993	     -9.02601350	      3.70017855	     10.14534334	    -11.42823518	     -1.34554276	     -0.07425028	    -12.09082652	     28.31845814	     -0.89754967	     -4.51538161	      1.19801655	      1.75213444
      1.66000000	     -4.71366767	     -2.46688638	      0.62490686	     -0.77849056	      0.84202094	     -0.12735399	     34.78981027	     -5.18394056	      3.72863644	     -8.38361121	      3.91338590	     10.57135912	    -11.99365109	     -1.41403763	     -0.06179697	    -12.10890579	     28.58031018	     -0.64729394	     -4.55922082	      1.22220215	      1.56377279
      1.67000000	     -4.75301847	     -2.43453157	      0.77661195	     -0.77033588	      0.83956390	     -0.12678416	     35.07186338	     -5.14711429	      2.58924739	     -8.14612040	      4.15483126	     10.71803894	    -12.54634497	     -1.48037806	     -0.02756148	    -12.13191185	     28.78690686	     -0.42102017	     -4.59288184	      1.23233850	      1.30567172
      1.68000000	     -4.79254984	     -2.39420811	      0.94640056	     -0.76199175	      0.83717440	     -0.12615782	     35.38567474	     -5.11662618	      1.35835306	     -8.24128027	      4.40987689	     10.70153439	    -13.12154796	     -1.55679080	      0.03055571	    -12.13152343	     28.91339212	     -0.14749941	     -4.63170424	      1.23933219	      1.03573291
      1.69000000	     -4.84104437	     -2.34722746	      1.13614940	     -0.75345484	      0.83487555	     -0.12547084	     35.71876109	     -5.09782448	      0.11197945	     -8.63012185	      4.63712136	     10.48695820	    -13.70248633	     -1.64812354	      0.10402622	    -12.11796021	     28.94066776	      0.22348501	     -4.66320354	      1.24467259	      0.75167487
      1.70000000	     -4.91459152	     -2.28984221	      1.33114085	     -0.74471492	      0.83266503	     -0.12468510	     36.08167459	     -5.08701038	     -1.04872723	     -9.29068169	      4.80672146	     10.02594923	    -14.27407437	     -1.75125005	      0.17074384	    -12.08961555	     28.86276895	      0.69660386	     -4.66775237	      1.24468631	      0.44671559
      1.71000000	     -5.00862428	     -2.19588950	      1.57584539	     -0.73583091	      0.83059321	     -0.12390457	     36.44592986	     -5.14305599	     -2.10270240	    -10.16186012	      4.84950024	      9.54338642	    -14.81077315	     -1.84277483	      0.34350577	    -12.08766192	     28.70320617	      1.11199190	     -4.66048957	      1.21358530	      0.08756468
      1.72000000	     -5.15282311	     -2.12640030	      1.79433373	     -0.72670249	      0.82863996	     -0.12295447	     36.82819799	     -5.15302716	     -2.95390300	    -11.18528111	      4.71595944	      8.78154601	    -15.31064211	     -1.98181042	      0.45673692	    -12.07801873	     28.39516157	      1.73027580	     -4.59120508	      1.21302158	     -0.23448247
      1.73000000	     -5.32113618	     -2.03786425	      2.04816392	     -0.71742430	      0.82688245	     -0.12198194	     37.20468373	     -5.20206567	     -3.61015210	    -12.32890322	      4.34980721	      8.10724238	    -15.76381968	     -2.12745367	      0.66510136	    -12.10730701	     28.00721146	      2.31493272	     -4.50479223	      1.20048300	     -0.60086637
      1.74000000	     -5.53827384	     -1.99579019	      2.27247320	     -0.70791897	      0.82531575	     -0.12086466	     37.59861291	     -5.18026909	     -4.00061433	    -13.53792459	      3.70750650	      7.32380481	    -16.16451093	     -2.33801466	      0.84358398	    -12.15127444	     27.47180144	      3.03334046	     -4.35907232	      1.25004797	     -0.94747608
      1.75000000	     -5.77146152	     -1.97588289	      2.50819709	     -0.69825688	      0.82402778	     -0.11968973	     37.99661485	     -5.13826933	     -4.16070538	    -14.80110628	      2.78955464	      6.61282792	    -16.51123943	     -2.59265704	      1.10090740	    -12.26010341	     26.81745152	      3.76065399	     -4.20311107	      1.33359502	     -1.29382982
      1.76000000	     -6.00878528	     -1.98381338	      2.74022446	     -0.68841959	      0.82305157	     -0.11845648	     38.40859357	     -5.06226571	     -4.10632661	    -16.11841460	      1.66156020	      5.96203735	    -16.81085166	     -2.88977869	      1.42174003	    -12.44377241	     26.02722655	      4.50497451	     -4.04712936	      1.46092458	     -1.63105862
      1.77000000	     -6.23367257	     -2.06019454	      2.93665908	     -0.67832946	      0.82242948	     -0.11711090	     38.81466412	     -4.89210440	     -3.87096789	    -17.47076456	      0.42555355	      5.32791949	    -17.09046086	     -3.26511060	      1.73236463	    -12.69269874	     25.07653291	      5.30544977	     -3.89725750	      1.67672340	     -1.92840909
      1.78000000	     -6.42280943	     -2.19098130	      3.11050394	     -0.66796859	      0.82220060	     -0.11573047	     39.19882469	     -4.65778705	     -3.53743749	    -18.88684671	     -0.75872824	      4.74857964	    -17.35838044	     -3.69797046	      2.06433372	    -13.03202346	     23.95622323	      6.12612173	     -3.77701472	      1.97267098	     -2.19493542
      1.79000000	     -6.56105308	     -2.37175630	      3.25793359	     -0.65731676	      0.82238291	     -0.11431878	     39.53226283	     -4.36277880	     -3.16853500	    -20.36270788	     -1.75674512	      4.21701801	    -17.61530943	     -4.17811041	      2.41162994	    -13.48793204	     22.65899923	      6.94427823	     -3.69939552	      2.34176238	     -2.42805896
      1.80000000	     -6.64788079	     -2.59598973	      3.37458943	     -0.64635140	      0.82297391	     -0.11289514	     39.78995184	     -4.01550663	     -2.82312536	    -21.87328902	     -2.46067582	      3.67521578	    -17.84218331	     -4.69172070	      2.75027912	    -14.09319187	     21.16805079	      7.78549565	     -3.65807794	      2.77824286	     -2.62019012
